<svg xmlns="http://www.w3.org/2000/svg" viewBox="0 0 512 512">
  <style>
    /* Adaptive monochrome mark: brand navy on light UI, near-white on dark UI
       (browser tab chrome). No background box — the mark reads on any chrome. */
    .mark { fill: #18254a; }
    @media (prefers-color-scheme: dark) {
      .mark { fill: #e8ecf5; }
    }
  </style>
  <svg class="mark" x="36" y="36" width="440" height="440" viewBox="0 0 52 45">
    <path d="M19.4 28.088c1.362-2.32 2.584-4.387 3.79-6.462 3.242-5.578 6.53-11.13 9.694-16.75 1.875-3.332 4.54-5.016 8.4-4.867 2.418.094 4.842.009 7.263.02 2.766.013 3.726 1.61 2.353 3.974-6.723 11.575-13.462 23.14-20.195 34.71-.892 1.534-1.752 3.086-2.666 4.607-1.349 2.247-3.235 2.247-4.571-.042-6.151-10.537-12.277-21.09-18.41-31.637C3.545 9.038 2.014 6.445.533 3.824-.68 1.677.237.046 2.67.035a1261 1261 0 0 1 15.815.003c3.942.031 6.15 3.823 4.214 7.286-2.282 4.082-4.65 8.117-7.034 12.14-.47.794-.533 1.38-.029 2.19 1.268 2.035 2.43 4.136 3.764 6.434M45.939 4.26c-2.33 0-4.428-.188-6.463.087-.903.122-1.974 1.005-2.469 1.84-4.967 8.37-9.838 16.796-14.7 25.229-.22.384-.287 1.079-.088 1.447 1.07 1.98 2.245 3.903 3.539 6.11z"/>
  </svg>
</svg>
